<?xml version="1.0" encoding="utf-8"?>
<!-- Generator: Adobe Illustrator 17.1.0, SVG Export Plug-In . SVG Version: 6.00 Build 0)  -->
<!DOCTYPE svg PUBLIC "-//W3C//DTD SVG 1.1//EN" "http://www.w3.org/Graphics/SVG/1.1/DTD/svg11.dtd">
<svg version="1.1" id="Layer_1" xmlns="http://www.w3.org/2000/svg" xmlns:xlink="http://www.w3.org/1999/xlink" x="0px" y="0px"
	 viewBox="0 0 17 17" style="enable-background:new 0 0 17 17;" xml:space="preserve">
<style type="text/css">
	.st0{display:none;fill:#939598;}
	.st1{fill:#FFFFFF;}
</style>
<path class="st0" d="M8.5,0.5c-4.4,0-8,3.6-8,8s3.6,8,8,8s8-3.6,8-8S12.9,0.5,8.5,0.5z M13,13c-0.5,0.5-1.4,0.5-2,0l-2.5-2.5L6.1,13
	c-0.6,0.6-1.5,0.5-2,0c-0.6-0.6-0.6-1.5,0-2l2.5-2.5L4,5.9C3.5,5.4,3.4,4.5,4,4c0.5-0.5,1.4-0.5,2,0l2.5,2.5L10.9,4
	c0.6-0.6,1.5-0.6,2,0c0.5,0.5,0.6,1.5,0,2l-2.5,2.5l2.5,2.5C13.5,11.6,13.5,12.5,13,13z"/>
<g>
	<path class="st1" d="M6.3,8.5L3.6,5.7C3,5.1,3,4.2,3.6,3.6C4.2,3,5.1,3,5.7,3.6l2.7,2.7l2.7-2.7c0.6-0.6,1.6-0.6,2.2,0
		c0.6,0.6,0.6,1.6,0,2.2l-2.7,2.7l2.7,2.7c0.6,0.6,0.6,1.5,0,2.1c-0.6,0.6-1.5,0.6-2.1,0l-2.7-2.7l-2.7,2.7c-0.6,0.6-1.6,0.6-2.2,0
		c-0.6-0.6-0.6-1.6,0-2.2L6.3,8.5z"/>
</g>
</svg>
