<svg xmlns="http://www.w3.org/2000/svg" width="16" height="16" viewBox="0 0 16 16">
  <style>
    .stroke { stroke: #808080; stroke-linecap: round; stroke-linejoin: round; fill: none; }
    .fill { fill: #808080; fill-rule: nonzero; }
  </style>
  <path class="stroke" d="M8.5 7.5h5M10.5 4.5l3 3-3 3"/>
  <path class="fill" d="M14 15H2a2 2 0 0 1-2-2V2a2 2 0 0 1 2-2h12a2 2 0 0 1 2 2v11a2 2 0 0 1-2 2zM4.5 2h-2a.5.5 0 0 0 0 1h2a.5.5 0 0 0 0-1zm0 2h-2a.5.5 0 0 0 0 1h2a.5.5 0 0 0 0-1zm0 2h-2a.5.5 0 0 0 0 1h2a.5.5 0 0 0 0-1zm0 2h-2a.5.5 0 0 0 0 1h2a.5.5 0 0 0 0-1zm0 2h-2a.5.5 0 0 0 0 1h2a.5.5 0 0 0 0-1zm0 2h-2a.5.5 0 0 0 0 1h2a.5.5 0 0 0 0-1zM15 2a1 1 0 0 0-1-1H7v13h7a1 1 0 0 0 1-1V2z"/>
</svg>
