<svg xmlns="http://www.w3.org/2000/svg" width="16" height="16" viewBox="0 0 16 16">
  <style>path { fill: #808080; }</style>
  <path d="M1 2v2c0 .55.45 1 1 1h12c.55 0 1-.45 1-1V2c0-.55-.45-1-1-1H2c-.55 0-1 .45-1 1zM0 2C0 .9.9 0 2 0h12c1.1 0 2 .9 2 2v11c0 1.1-.9 2-2 2H2c-1.1 0-2-.9-2-2V2z"/>
  <path d="M4.94 3H3.06c-.2 0-.3-.2-.3-.5s.12-.5.3-.5h1.88c.18 0 .3.2.3.5s-.12.5-.3.5zm4 0H7.06c-.18 0-.3-.2-.3-.5s.12-.5.3-.5h1.88c.2 0 .3.2.3.5s-.12.5-.3.5zm4 0h-1.88c-.2 0-.3-.2-.3-.5s.12-.5.3-.5h1.88c.2 0 .3.2.3.5s-.12.5-.3.5z"/>
</svg>
