<?xml version="1.0"?>
<!-- This Source Code Form is subject to the terms of the Mozilla Public
   - License, v. 2.0. If a copy of the MPL was not distributed with this
   - file, You can obtain one at http://mozilla.org/MPL/2.0/. -->
<svg xmlns="http://www.w3.org/2000/svg" xmlns:xlink="http://www.w3.org/1999/xlink" width="16" height="16" viewBox="0 0 16 16">
  <style>
    path {
      fill: #4c4c4c;
    }

    .stroke {
      stroke: #4c4c4c;
      stroke-width: 1;
      stroke-linecap: round;
      stroke-linejoin: round;
      fill: none;
    }
  </style>


  <line class="stroke" x1="8.5" y1="7.5" x2="13.5" y2="7.5" />
  <path class="stroke" d="M 10.5,4.5 l 3,3 l -3,3" />
  <path d="M335,124H323a2,2,0,0,1-2-2V111a2,2,0,0,1,2-2h12a2,2,0,0,1,2,2v11A2,2,0,0,1,335,124Zm-9.5-13h-2a0.5,0.5,0,0,0,0,1h2A0.5,0.5,0,0,0,325.5,111Zm0,2h-2a0.5,0.5,0,0,0,0,1h2A0.5,0.5,0,0,0,325.5,113Zm0,2h-2a0.5,0.5,0,0,0,0,1h2A0.5,0.5,0,0,0,325.5,115Zm0,2h-2a0.5,0.5,0,0,0,0,1h2A0.5,0.5,0,0,0,325.5,117Zm0,2h-2a0.5,0.5,0,0,0,0,1h2A0.5,0.5,0,0,0,325.5,119Zm0,2h-2a0.5,0.5,0,0,0,0,1h2A0.5,0.5,0,0,0,325.5,121ZM336,111a1,1,0,0,0-1-1h-7v13h7a1,1,0,0,0,1-1V111Z" transform="translate(-321 -109)"/>
</svg>
