<svg xmlns="http://www.w3.org/2000/svg" width="16" height="16" viewBox="0 0 16 16">
  <style>path { fill: #f0f0f0; }</style>
  <path d="M1 3v10c0 .55.45 1 1 1h5c.55 0 1-.45 1-1V3c0-.55-.45-1-1-1H2c-.55 0-1 .45-1 1zM0 3c0-1.1.9-2 2-2h12c1.1 0 2 .9 2 2v10c0 1.1-.9 2-2 2H2c-1.1 0-2-.9-2-2V3z"/>
  <path d="M6 5H3c-.3 0-.5-.2-.5-.5S2.7 4 3 4h3c.3 0 .5.2.5.5S6.3 5 6 5zm0 2H3c-.3 0-.5-.2-.5-.5S2.7 6 3 6h3c.3 0 .5.2.5.5S6.3 7 6 7zm0 2H3c-.3 0-.5-.2-.5-.5S2.7 8 3 8h3c.3 0 .5.2.5.5S6.3 9 6 9z"/>
</svg>
